<?xml version="1.0" encoding="UTF-8" standalone="no"?>
<svg
   xmlns:dc="http://purl.org/dc/elements/1.1/"
   xmlns:cc="http://creativecommons.org/ns#"
   xmlns:rdf="http://www.w3.org/1999/02/22-rdf-syntax-ns#"
   xmlns:svg="http://www.w3.org/2000/svg"
   xmlns="http://www.w3.org/2000/svg"
   xmlns:sodipodi="http://sodipodi.sourceforge.net/DTD/sodipodi-0.dtd"
   xmlns:inkscape="http://www.inkscape.org/namespaces/inkscape"
   width="500"
   height="500"
   viewBox="0 0 132.29166 132.29166"
   version="1.1"
   id="svg5"
   inkscape:version="1.0.2 (e86c870879, 2021-01-15)"
   sodipodi:docname="tower-journal.svg">
  <metadata
     id="metadata10">
    <rdf:RDF>
      <cc:Work
         rdf:about="">
        <dc:format>image/svg+xml</dc:format>
        <dc:type
           rdf:resource="http://purl.org/dc/dcmitype/StillImage" />
        <dc:title></dc:title>
      </cc:Work>
    </rdf:RDF>
  </metadata>
  <sodipodi:namedview
     id="namedview7"
     pagecolor="#ffffff"
     bordercolor="#eeeeee"
     borderopacity="1"
     inkscape:pageshadow="0"
     inkscape:pageopacity="0"
     inkscape:pagecheckerboard="false"
     inkscape:document-units="mm"
     showgrid="false"
     units="px"
     inkscape:zoom="0.67081229"
     inkscape:cx="274.90357"
     inkscape:cy="239.08948"
     inkscape:window-width="1920"
     inkscape:window-height="991"
     inkscape:window-x="-9"
     inkscape:window-y="-9"
     inkscape:window-maximized="1"
     inkscape:current-layer="layer1"
     inkscape:document-rotation="0"
     fit-margin-top="0"
     fit-margin-left="0"
     fit-margin-right="0"
     fit-margin-bottom="0" />
  <defs
     id="defs2" />
  <g
     inkscape:label="Layer 1"
     inkscape:groupmode="layer"
     id="layer1"
     transform="translate(0,4.6234902)">
    <g
       id="g2126"
       transform="matrix(0.84550464,0,0,0.84550464,10.219225,-0.7143077)">
      <path
         id="rect2183"
         style="fill:#1a1a1a;fill-opacity:1;stroke:none;stroke-width:4.0252;stroke-linecap:round;stroke-linejoin:round;stop-color:#000000"
         d="M 10.808594,-17.474609 C 4.8210775,-17.474609 0,-12.653532 0,-6.6660156 v 57.5449216 58.736324 41.84766 l 0.47265625,0.75977 c 0.67125685,33.74605 1.97921355,68.79525 3.40039065,80.01953 5.5669417,43.8357 20.0975331,89.3687 43.4355471,136.05664 40.110425,80.25084 99.928526,143.45454 184.472656,194.9082 9.57318,5.82391 17.66363,10.63433 17.97461,10.67969 1.25571,0.18531 28.92843,-16.97593 46.10156,-28.57617 62.21668,-42.03583 111.45268,-94.978 146.47461,-157.51758 28.00203,-49.9886 47.66153,-106.9327 53.71875,-155.58789 1.488,-11.93205 2.81769,-46.61364 3.48828,-80.00196 L 500,151.46289 V 109.64062 48.269531 -6.6660156 c 0,-5.9875164 -4.8211,-10.8085934 -10.80859,-10.8085934 h -97.24414 c -5.98753,0 -10.8086,4.821077 -10.8086,10.8085934 V 48.269531 H 301.42969 V 1.3339844 c 0,-5.9875162 -4.81913,-10.8085938 -10.80664,-10.8085938 h -81.2461 c -5.98751,0 -10.80664,4.8210776 -10.80664,10.8085938 V 48.269531 H 118.86133 V -6.6660156 c 0,-5.9875164 -4.82108,-10.8085934 -10.8086,-10.8085934 z"
         transform="scale(0.26458333)" />
      <g
         id="g933"
         transform="matrix(1.0738249,0,0,1.2720473,-58.467205,115.64049)">
        <path
           style="fill:#ff7600;fill-opacity:1;stroke-width:2.09678;stroke-linecap:round;stroke-linejoin:round;stop-color:#000000"
           d="m 117.23438,-30.88778 c -8e-5,-1.44559 -0.0294,-7.51463 -0.0652,-13.48676 l -0.0651,-10.85842 1.41623,-1.35174 c 0.77892,-0.74346 1.53782,-1.40591 1.68643,-1.47211 0.14861,-0.0662 0.2702,-0.17347 0.2702,-0.23836 0,-0.16209 1.06895,-0.91485 1.29912,-0.91485 0.10248,0 0.15934,-0.0436 0.12637,-0.097 -0.17363,-0.28095 2.90951,-1.84587 5.02972,-2.55296 2.71798,-0.90645 7.24388,-1.48926 13.73636,-1.76886 1.29698,-0.0559 2.7046,-0.11644 3.12805,-0.13462 0.75023,-0.0322 0.77247,-0.0266 0.87007,0.22137 0.0551,0.13994 0.5129,1.44825 1.01734,2.90735 0.50445,1.4591 2.66634,7.62613 4.80421,13.7045 2.13786,6.07837 3.88703,11.10784 3.88703,11.1766 0,0.16999 0.0346,0.1751 -1.79404,-0.26521 -3.46827,-0.83513 -5.71198,-1.13567 -9.25975,-1.24033 -2.5485,-0.0752 -5.52482,0.0718 -7.18683,0.35494 -4.6998,0.80062 -10.18939,3.22646 -16.82708,7.43585 -1.04849,0.66492 -1.94384,1.20895 -1.98968,1.20895 -0.0458,0 -0.0834,-1.18276 -0.0835,-2.62835 z"
           id="path895" />
        <path
           style="fill:#ff7600;fill-opacity:1;stroke-width:2.09678;stroke-linecap:round;stroke-linejoin:round;stop-color:#000000"
           d="m 114.55038,-28.26426 c -0.001,-0.0837 -0.15306,-0.20702 -0.3383,-0.274 -0.18524,-0.067 -0.99217,-0.53215 -1.79317,-1.0337 -1.7275,-1.08167 -3.38235,-2.06549 -4.2321,-2.51602 -0.33775,-0.17907 -0.6141,-0.37874 -0.6141,-0.44372 0,-0.065 -0.16865,-0.16867 -0.37477,-0.23043 -0.20612,-0.0618 -1.05726,-0.43909 -1.89143,-0.83852 -5.757999,-2.75717 -8.627725,-3.49536 -14.238063,-3.6625 -4.110802,-0.12248 -8.034632,0.30138 -12.009491,1.29728 -0.74031,0.18549 -1.387429,0.33725 -1.438039,0.33725 -0.111854,0 0.301148,-1.10485 2.736316,-7.32006 1.037504,-2.648 2.164029,-5.54409 2.503389,-6.43576 0.339362,-0.89167 0.9495,-2.46131 1.355865,-3.48808 0.406365,-1.02678 1.477135,-3.79022 2.379489,-6.14099 0.902353,-2.35077 1.713047,-4.3557 1.801542,-4.4554 0.138403,-0.15593 0.257189,-0.17293 0.849586,-0.12157 6.853209,0.59418 13.083926,1.18765 13.953226,1.32902 0.32424,0.0527 0.95611,0.14443 1.40414,0.20376 1.72697,0.22872 4.78465,1.22612 6.03375,1.9682 1.65118,0.98094 2.90184,2.26175 3.68044,3.76913 l 0.45217,0.87541 -0.0439,12.97866 c -0.0339,10.01329 -0.0716,13.02971 -0.16481,13.20206 -0.0996,0.18417 -0.0941,0.2501 0.0312,0.37548 0.17284,0.17283 0.19341,0.41334 0.0538,0.62932 -0.0839,0.12989 -0.0954,0.12932 -0.0968,-0.005 z"
           id="path897" />
        <path
           style="fill:#ff7600;fill-opacity:1;stroke-width:2.97585;stroke-linecap:round;stroke-linejoin:round;stop-color:#000000"
           d="m 104.3203,-30.36125 c -2.0006,-0.4812 -5.054869,-1.01985 -7.530264,-1.32804 -2.571002,-0.32009 -10.13273,-0.18577 -17.01282,0.3022 -3.229448,0.22905 -7.213188,0.55026 -7.844026,0.63245 -0.401909,0.0524 -0.59266,0.025 -0.59266,-0.085 0,-0.17947 2.754872,-6.9535 2.918315,-7.17593 0.05636,-0.0767 0.246081,-0.54734 0.421609,-1.04587 0.468949,-1.33191 2.769273,-6.94024 3.14582,-7.66972 0.178155,-0.34513 0.365183,-0.81578 0.415616,-1.04587 0.07713,-0.3519 1.030615,-2.73368 3.588848,-8.96485 0.229473,-0.55893 0.508997,-1.10801 0.621167,-1.22018 0.255413,-0.25541 1.082038,-0.28044 0.978824,-0.0296 -0.03945,0.0959 -0.302951,0.77046 -0.585552,1.49908 -0.282602,0.72862 -0.598514,1.51302 -0.70203,1.74312 -0.103516,0.23009 -0.467937,1.17137 -0.809823,2.09174 -0.34189,0.92036 -1.091502,2.86568 -1.665806,4.32293 -0.574305,1.45724 -1.562638,3.9987 -2.196296,5.64769 -0.633659,1.64899 -1.367111,3.50018 -1.629895,4.11376 -0.262784,0.61357 -0.789638,2.01473 -1.170788,3.11368 l -0.692998,1.99808 0.2503,0.51128 c 0.399476,0.81601 0.71698,0.84513 2.782389,0.25516 2.5024,-0.71478 5.701647,-1.44466 7.477157,-1.70585 1.211313,-0.17819 2.388008,-0.20957 6.066047,-0.16175 5.107101,0.0664 5.036478,0.0561 8.789757,1.28661 1.887189,0.61873 7.806819,3.40301 7.208299,3.39039 -0.15339,-0.003 -1.15743,-0.21719 -2.23119,-0.47546 z"
           id="path901" />
        <path
           style="fill:#ff7600;fill-opacity:1;stroke-width:2.97585;stroke-linecap:round;stroke-linejoin:round;stop-color:#000000"
           d="m 125.86522,-30.30165 c 0.42184,-0.24268 1.77101,-0.90721 2.99816,-1.47673 5.61679,-2.60676 9.54304,-3.28708 16.24585,-2.81498 3.06344,0.21577 6.00675,0.77872 9.52371,1.82157 1.98645,0.58902 2.42176,0.61319 2.92215,0.16224 0.42095,-0.37935 0.28097,-1.12951 -0.80105,-4.29278 -0.57479,-1.6804 -1.06437,-3.1831 -1.08796,-3.33932 -0.0236,-0.15622 -0.14153,-0.47229 -0.26211,-0.70238 -0.19754,-0.37696 -2.15668,-5.83338 -2.77886,-7.73944 -0.1377,-0.42183 -0.50958,-1.48862 -0.8264,-2.37064 -0.31682,-0.88202 -1.00807,-2.84302 -1.53611,-4.35779 l -0.96007,-2.75412 0.51802,0.002 c 0.28492,10e-4 0.59624,0.0518 0.69182,0.1125 0.25604,0.16259 4.91611,12.73008 4.91611,13.258 0,0.1526 0.12058,0.48499 0.26795,0.73864 0.48659,0.83751 5.00605,13.15291 4.87492,13.28404 -0.0292,0.0293 -1.43367,-0.0643 -3.12095,-0.20782 -7.35547,-0.62578 -16.69905,-1.06194 -19.45308,-0.90809 -3.4588,0.19322 -7.01137,0.71804 -10.93939,1.61605 -0.993,0.22702 -1.84015,0.41218 -1.88257,0.41146 -0.0424,-8e-4 0.26803,-0.19987 0.68986,-0.44254 z"
           id="path903" />
        <path
           style="fill:#ff7600;fill-opacity:1;stroke-width:2.97585;stroke-linecap:round;stroke-linejoin:round;stop-color:#000000"
           d="m 125.86522,-27.28637 c 2.54017,-0.63348 5.93911,-1.33963 7.68674,-1.59696 4.54648,-0.66943 13.66389,-0.44013 25.3289,0.63704 4.56824,0.42183 4.85014,0.39162 4.98318,-0.53399 0.10494,-0.73002 0.33865,-0.0498 -4.864,-14.1573 -2.27114,-6.15847 -4.12935,-11.25708 -4.12935,-11.33026 0,-0.15498 1.53009,-0.17791 1.7571,-0.0263 0.0844,0.0564 0.22238,0.23353 0.30664,0.39374 0.12624,0.24002 7.40001,19.94339 9.23603,25.01877 0.29132,0.80532 0.57311,1.57403 0.62619,1.70825 0.0917,0.23181 -0.96503,0.24337 -21.07984,0.23073 l -21.17635,-0.0133 z"
           id="path905" />
        <path
           style="fill:#ff7600;fill-opacity:1;stroke-width:2.97585;stroke-linecap:round;stroke-linejoin:round;stop-color:#000000"
           d="m 65.369128,-27.05047 c -0.211769,-0.13427 -0.181143,-0.21725 2.553386,-6.91842 0.969625,-2.37613 1.883153,-4.54108 2.030061,-4.811 0.146908,-0.26991 0.480397,-1.08689 0.741086,-1.81552 0.496579,-1.38793 1.078496,-2.84827 3.834171,-9.622 l 1.673549,-4.11376 0.725424,-0.0428 c 0.398986,-0.0235 0.808818,-0.0108 0.910743,0.0283 0.202597,0.0777 -0.824592,2.6925 -4.059532,10.3337 -0.974102,2.30092 -2.101641,5.06202 -2.505642,6.13578 -0.404001,1.07376 -1.338507,3.4695 -2.076681,5.32388 -1.450226,3.64314 -1.456519,3.68029 -0.736825,4.34963 l 0.355262,0.33041 4.017325,-0.36611 c 11.441405,-1.04269 20.589908,-1.308 24.795278,-0.71908 2.453357,0.34356 5.134497,0.86584 7.460537,1.4533 l 2.16147,0.54588 -20.84768,0.0123 c -11.466223,0.007 -20.930592,-0.0403 -21.031932,-0.10454 z"
           id="path907" />
      </g>
    </g>
  </g>
</svg>
